<?xml version="1.0" encoding="UTF-8" standalone="no" ?>
<!DOCTYPE svg PUBLIC "-//W3C//DTD SVG 1.1//EN" "http://www.w3.org/Graphics/SVG/1.1/DTD/svg11.dtd">
<svg xmlns="http://www.w3.org/2000/svg" xmlns:xlink="http://www.w3.org/1999/xlink" version="1.1" width="500" height="500" viewBox="0 0 500 500" xml:space="preserve">
<desc>Created with Fabric.js 3.6.3</desc>
<defs>
</defs>
<g transform="matrix(2.2180030361952374 -5.4325e-16 5.4325e-16 2.2180030361952374 250.50000000000003 199.5853550632842)"  >
<path style="stroke: none; stroke-width: 0; stroke-dasharray: none; stroke-linecap: butt; stroke-dashoffset: 0; stroke-linejoin: miter; stroke-miterlimit: 4; fill: rgb(0,0,0); fill-rule: nonzero; opacity: 0.4;"  transform=" translate(-49.9995, -49.9995)" d="M 50 100.083 C 22.383 100.083 -0.084 77.615 -0.084 50 C -0.084 22.383 22.383 -0.084 50 -0.084 c 27.616 0 50.083 22.468 50.083 50.084 C 100.083 77.615 77.615 100.083 50 100.083 z" stroke-linecap="round" />
</g>
<g transform="matrix(1.944727206266321 -4.7632e-16 4.7632e-16 1.944727206266321 250.5000000000002 199.58535506328423)"  >
<path style="stroke: none; stroke-width: 0; stroke-dasharray: none; stroke-linecap: butt; stroke-dashoffset: 0; stroke-linejoin: miter; stroke-miterlimit: 4; fill: rgb(25,52,65); fill-rule: nonzero; opacity: 0.5;"  transform=" translate(-49.9995, -49.9995)" d="M 50 100.083 C 22.383 100.083 -0.084 77.615 -0.084 50 C -0.084 22.383 22.383 -0.084 50 -0.084 c 27.616 0 50.083 22.468 50.083 50.084 C 100.083 77.615 77.615 100.083 50 100.083 z" stroke-linecap="round" />
</g>
<g transform="matrix(1.599036709960051 -3.9165e-16 3.9165e-16 1.5990367099600509 250.5 199.58535506328428)"  >
<path style="stroke: none; stroke-width: 0; stroke-dasharray: none; stroke-linecap: butt; stroke-dashoffset: 0; stroke-linejoin: miter; stroke-miterlimit: 4; fill: rgb(25,52,65); fill-rule: nonzero; opacity: 0.5;"  transform=" translate(-49.9995, -49.9995)" d="M 50 100.083 C 22.383 100.083 -0.084 77.615 -0.084 50 C -0.084 22.383 22.383 -0.084 50 -0.084 c 27.616 0 50.083 22.468 50.083 50.084 C 100.083 77.615 77.615 100.083 50 100.083 z" stroke-linecap="round" />
</g>
<g transform="matrix(1.4772109964238154 0 0 1.4772109964238154 250.5000000000001 199.58535506328428)"  >
<path style="stroke: none; stroke-width: 0; stroke-dasharray: none; stroke-linecap: butt; stroke-dashoffset: 0; stroke-linejoin: miter; stroke-miterlimit: 4; fill: rgb(82,114,255); fill-rule: nonzero; opacity: 1;"  transform=" translate(-49.998772578515, -49.99907712500001)" d="m 90.191 17.852 c -0.066406 -0.67969 -0.64062 -1.1992 -1.3281 -1.1992 c -10.02 0 -17.789 -7.6602 -20.762 -14.781 c -0.20703 -0.49609 -0.69141 -0.82031 -1.2305 -0.82031 h -33.742 c -0.53906 0 -1.0234 0.32422 -1.2305 0.82031 c -2.9766 7.1211 -10.742 14.781 -20.762 14.781 c -0.6875 0 -1.2617 0.51953 -1.3281 1.1992 c -1.7227 17.27 -2.7891 32.707 1.6172 46.762 c 5.3125 16.934 17.805 28.145 38.191 34.277 c 0.25 0.074219 0.51562 0.074219 0.76562 0 c 20.387 -6.1328 32.879 -17.344 38.191 -34.277 c 4.4062 -14.055 3.3398 -29.492 1.6172 -46.762 z m -4.1641 45.965 c -4.9922 15.918 -16.781 26.52 -36.027 32.406 c -19.246 -5.8867 -31.035 -16.488 -36.027 -32.406 c -4.1602 -13.262 -3.25 -28.031 -1.625 -44.527 c 4.8477 -0.30078 9.4883 -2.082 13.297 -5.0977 c 3.5781 -2.7734 6.4453 -6.3672 8.3555 -10.473 h 32 c 1.9102 4.1055 4.7773 7.6953 8.3555 10.469 c 3.8086 3.0156 8.4492 4.7969 13.297 5.0977 c 1.625 16.5 2.5391 31.27 -1.625 44.531 z m -3.8516 -40.387 c -7.8477 -2.1172 -14.578 -7.1758 -18.793 -14.125 c -0.24219 -0.39453 -0.67187 -0.63281 -1.1328 -0.63281 h -24.5 c -0.46094 0 -0.89062 0.23828 -1.1328 0.63281 c -4.2148 6.9492 -10.945 12.008 -18.793 14.125 c -0.55078 0.14062 -0.95312 0.60937 -1.0039 1.1758 c -1.207 13.762 -1.7227 28.133 2.6523 39.922 c 4.668 12.574 14.516 21.199 30.105 26.367 c 0.27344 0.089844 0.57031 0.089844 0.84375 0 c 15.586 -5.168 25.434 -13.789 30.105 -26.367 c 4.3789 -11.789 3.8633 -26.156 2.6562 -39.918 l -0.003906 -0.003906 c -0.046876 -0.56641 -0.44922 -1.0391 -1.0039 -1.1758 z m -21.785 42.254 h -21.613 c -0.35938 0.011718 -0.70703 -0.125 -0.96484 -0.375 c -0.26172 -0.25391 -0.40625 -0.59766 -0.40625 -0.95703 c 0 -0.35937 0.14453 -0.70703 0.40625 -0.95703 c 0.25781 -0.25 0.60547 -0.38672 0.96484 -0.375 h 21.613 c 0.35938 -0.011719 0.71094 0.125 0.96875 0.375 s 0.40234 0.59766 0.40234 0.95703 c 0 0.35938 -0.14453 0.70313 -0.40234 0.95703 c -0.25781 0.25 -0.60938 0.38672 -0.96875 0.375 z m 5.8516 -7.2812 c -3.9258 0 -7.1211 -3.6094 -7.1211 -8.0508 v 0.003907 c 0 -0.35547 0.14062 -0.69531 0.39062 -0.94531 s 0.58984 -0.39062 0.94141 -0.39062 h 0.89844 l 3.1562 -11.328 c -1.6094 -0.14062 -3.1836 -0.57812 -4.6367 -1.2891 c -1.5352 -0.75781 -3.2344 -1.125 -4.9453 -1.0742 v 0.53516 c -0.003906 1.6484 -1.3359 2.9844 -2.9844 2.9844 h -0.60547 l 0.003906 17.531 h 4.9102 c 0.35938 -0.007812 0.70703 0.125 0.96484 0.37891 c 0.26172 0.25 0.40625 0.59375 0.40625 0.95703 c 0 0.35938 -0.14453 0.70312 -0.40625 0.95312 c -0.25781 0.25391 -0.60547 0.38672 -0.96484 0.37891 h -13.324 c -0.36328 0.007813 -0.71094 -0.125 -0.96875 -0.37891 c -0.25781 -0.25 -0.40234 -0.59375 -0.40234 -0.95312 c 0 -0.36328 0.14453 -0.70703 0.40234 -0.95703 c 0.25781 -0.25391 0.60547 -0.38672 0.96875 -0.37891 h 5.7422 v -17.531 h -0.60547 c -1.6484 0 -2.9805 -1.3359 -2.9844 -2.9805 v -0.53906 c -1.7109 -0.050781 -3.4102 0.32031 -4.9453 1.0742 c -1.4531 0.71484 -3.0273 1.1484 -4.6367 1.2891 l 3.1562 11.328 h 0.89453 v 0.003907 c 0.35547 0 0.69531 0.13672 0.94531 0.38672 s 0.39062 0.58984 0.39062 0.94531 c 0 4.4375 -3.1953 8.0508 -7.1211 8.0508 s -7.1211 -3.6094 -7.1211 -8.0508 c 0 -0.73828 0.59766 -1.332 1.332 -1.332 h 0.89844 l 3.1914 -11.465 c -1.2383 -0.21484 -2.4375 -0.60156 -3.5625 -1.1562 c -0.31641 -0.15625 -0.55859 -0.42969 -0.67188 -0.76562 c -0.11328 -0.33203 -0.089844 -0.69922 0.066406 -1.0156 c 0.32422 -0.66016 1.125 -0.93359 1.7852 -0.60938 c 2.9258 1.4297 6.3516 1.4297 9.2773 0 c 1.9102 -0.94141 4.0195 -1.4023 6.1445 -1.3477 c 0.23047 -2.5352 2.3555 -4.4766 4.9023 -4.4766 c 2.543 0 4.6719 1.9414 4.8984 4.4766 c 2.1289 -0.054687 4.2383 0.40625 6.1445 1.3477 c 2.9297 1.4297 6.3516 1.4297 9.2812 0 c 0.66016 -0.32422 1.457 -0.050781 1.7852 0.60938 c 0.32422 0.66016 0.050781 1.457 -0.60938 1.7812 c -1.125 0.55469 -2.3242 0.94141 -3.5586 1.1562 l 3.1914 11.465 h 0.89844 c 0.73438 0 1.332 0.59375 1.332 1.332 c -0.003907 4.4375 -3.1992 8.0469 -7.125 8.0469 z m -36.801 -6.7188 h 8.6328 c -0.30859 2.1992 -2.1055 3.8867 -4.3164 4.0508 c -2.2148 -0.16797 -4.0117 -1.8516 -4.3164 -4.0508 z m 4.3164 -10.297 l 2.125 7.6289 l -4.25 0.003906 z m 18.496 -8.2812 v 2.7539 c -0.003906 0.17578 -0.14453 0.31641 -0.31641 0.31641 h -3.875 c -0.17188 0 -0.3125 -0.14062 -0.31641 -0.31641 v -2.7461 c 0.003906 -1.2461 1.0117 -2.2539 2.2539 -2.2578 c 1.2461 0.003906 2.2539 1.0117 2.2539 2.2578 z m 16.113 15.918 h -4.25 l 2.125 -7.6289 z m -6.4414 2.6602 h 8.6328 c -0.30859 2.1992 -2.1055 3.8828 -4.3164 4.0508 c -2.2109 -0.16406 -4.0117 -1.8516 -4.3164 -4.0508 z" stroke-linecap="round" />
</g>
<g transform="matrix(1 0 0 1 250.25 398.48250890523485)" style=""  ><path fill="#000000" opacity="1" d="M-87.35 5.17L-87.35 5.17Q-88.71 5.17-89.79 4.61Q-90.87 4.04-91.56 3.03Q-92.26 2.02-92.49 0.68L-92.49 0.68L-93.27 0.68L-93.27 3.16L-92.10 3.41L-92.10 5.01L-97.18 5.01L-97.18 3.41L-96.00 3.16L-96.00-4.48L-97.18-4.72L-97.18-6.33L-92.10-6.33L-92.10-4.72L-93.27-4.48L-93.27-1.41L-92.56-1.41Q-92.43-2.91-91.75-4.05Q-91.07-5.20-89.95-5.85Q-88.83-6.50-87.36-6.50L-87.36-6.50Q-85.81-6.50-84.63-5.75Q-83.46-5.00-82.81-3.71Q-82.16-2.41-82.16-0.75L-82.16-0.75L-82.16-0.58Q-82.16 1.09-82.81 2.38Q-83.46 3.68-84.63 4.42Q-85.79 5.17-87.35 5.17ZM-87.35 3.08L-87.35 3.08Q-86.49 3.08-85.95 2.62Q-85.40 2.17-85.14 1.35Q-84.88 0.52-84.88-0.58L-84.88-0.58L-84.88-0.77Q-84.88-1.86-85.14-2.68Q-85.41-3.49-85.96-3.95Q-86.51-4.41-87.36-4.41L-87.36-4.41Q-88.24-4.41-88.80-3.96Q-89.35-3.51-89.60-2.69Q-89.86-1.87-89.86-0.77L-89.86-0.77L-89.86-0.58Q-89.86 0.52-89.59 1.35Q-89.33 2.18-88.78 2.63Q-88.22 3.08-87.35 3.08Z"/><path fill="#000000" opacity="1" d="M-76.45 5.01L-81.54 5.01L-81.54 3.41L-80.36 3.16L-80.36-4.48L-81.54-4.72L-81.54-6.33L-80.36-6.33L-76.02-6.33Q-74.67-6.33-73.67-5.85Q-72.67-5.38-72.13-4.53Q-71.59-3.69-71.59-2.57L-71.59-2.57Q-71.59-1.45-72.13-0.60Q-72.67 0.24-73.67 0.70Q-74.67 1.17-76.02 1.17L-76.02 1.17L-77.63 1.17L-77.63 3.16L-76.45 3.41L-76.45 5.01ZM-77.63-4.24L-77.63-0.92L-76.02-0.92Q-75.19-0.92-74.76-1.38Q-74.33-1.84-74.33-2.55L-74.33-2.55Q-74.33-3.29-74.76-3.77Q-75.19-4.24-76.02-4.24L-76.02-4.24L-77.63-4.24Z"/><path fill="#000000" opacity="1" d="M-65.81 5.01L-70.90 5.01L-70.90 3.41L-69.72 3.16L-69.72-4.48L-70.90-4.72L-70.90-6.33L-69.72-6.33L-67.00-6.33L-65.81-6.33L-65.81-4.72L-67.00-4.48L-67.00-0.03L-66.95-0.01L-62.92-3.90L-62.92-4.48L-64.09-4.72L-64.09-6.33L-62.92-6.33L-60.17-6.33L-59.01-6.33L-59.01-4.72L-60.17-4.48L-60.17 3.16L-59.01 3.41L-59.01 5.01L-64.09 5.01L-64.09 3.41L-62.92 3.16L-62.92-1.21L-62.97-1.23L-67.00 2.67L-67.00 3.16L-65.81 3.41L-65.81 5.01Z"/><path fill="#000000" opacity="1" d="M-55.60 7.79L-58.18 7.79L-58.32 2.93L-57.51 2.93Q-57.10 2.65-56.77 2.12Q-56.44 1.59-56.23 0.68Q-56.02-0.23-55.95-1.66L-55.95-1.66L-55.73-4.50L-56.78-4.72L-56.78-6.33L-46.71-6.33L-46.71-4.72L-47.88-4.48L-47.88 2.93L-46.67 2.93L-46.92 7.81L-49.40 7.81L-49.40 5.01L-55.60 5.01L-55.60 7.79ZM-54.39 2.93L-54.39 2.93L-50.61 2.93L-50.61-4.24L-53.03-4.24L-53.21-1.66Q-53.26-0.57-53.41 0.27Q-53.56 1.11-53.81 1.76Q-54.05 2.40-54.39 2.93Z"/><path fill="#000000" opacity="1" d="M-40.71 5.01L-45.80 5.01L-45.80 3.41L-44.61 3.16L-44.61-4.48L-45.80-4.72L-45.80-6.33L-44.61-6.33L-41.90-6.33L-40.71-6.33L-40.71-4.72L-41.90-4.48L-41.90-0.03L-41.85-0.01L-37.82-3.90L-37.82-4.48L-38.99-4.72L-38.99-6.33L-37.82-6.33L-35.07-6.33L-33.91-6.33L-33.91-4.72L-35.07-4.48L-35.07 3.16L-33.91 3.41L-33.91 5.01L-38.99 5.01L-38.99 3.41L-37.82 3.16L-37.82-1.21L-37.87-1.23L-41.90 2.67L-41.90 3.16L-40.71 3.41L-40.71 5.01Z"/><path fill="#000000" opacity="1" d="M-21.97 5.01L-27.04 5.01L-27.04 3.41L-25.88 3.16L-25.88 0.84Q-26.30 0.91-26.76 0.95Q-27.22 0.99-27.69 0.99L-27.69 0.99Q-29.92 0.99-31.17 0.04Q-32.42-0.92-32.42-2.83L-32.42-2.83L-32.42-4.48L-33.59-4.72L-33.59-6.33L-28.52-6.33L-28.52-4.72L-29.69-4.48L-29.69-2.83Q-29.69-1.84-29.22-1.47Q-28.75-1.09-27.69-1.09L-27.69-1.09Q-27.29-1.09-26.79-1.13Q-26.28-1.17-25.88-1.24L-25.88-1.24L-25.88-4.48L-27.04-4.72L-27.04-6.33L-21.97-6.33L-21.97-4.72L-23.15-4.48L-23.15 3.16L-21.97 3.41L-21.97 5.01Z"/><path fill="#000000" opacity="1" d="M-16.24 5.01L-21.33 5.01L-21.33 3.41L-20.15 3.16L-20.15-4.48L-21.33-4.72L-21.33-6.33L-16.24-6.33L-16.24-4.72L-17.42-4.48L-17.42-1.61L-13.29-1.61L-13.29-4.48L-14.47-4.72L-14.47-6.33L-13.29-6.33L-10.56-6.33L-9.39-6.33L-9.39-4.72L-10.56-4.48L-10.56 3.16L-9.39 3.41L-9.39 5.01L-14.47 5.01L-14.47 3.41L-13.29 3.16L-13.29 0.49L-17.42 0.49L-17.42 3.16L-16.24 3.41L-16.24 5.01Z"/><path fill="#000000" opacity="1" d="M-5.86 5.01L-10.11 5.01L-10.11 3.41L-9.31 3.30L-5.93-6.33L-2.97-6.33L0.42 3.30L1.21 3.41L1.21 5.01L-3.03 5.01L-3.03 3.41L-2.29 3.27L-2.63 2.04L-6.27 2.04L-6.60 3.27L-5.86 3.41L-5.86 5.01ZM-4.62-3.27L-5.70 0.13L-3.21 0.13L-4.32-3.31L-4.44-3.70L-4.49-3.70L-4.62-3.27Z"/><path fill="#000000" opacity="1" d=""/><path fill="#000000" opacity="1" d="M10.61 5.01L5.63 5.01L5.63 3.41L6.80 3.16L6.80-4.48L5.63-4.72L5.63-6.33L10.61-6.33L10.61-4.72L9.54-4.48L9.54-1.99L10.42-1.99L12.28-4.66Q12.99-5.66 13.63-6.06Q14.27-6.45 15.03-6.45L15.03-6.45Q15.51-6.45 15.92-6.33Q16.33-6.21 16.62-6.03L16.62-6.03L16.14-3.93Q16.00-3.98 15.88-4.00Q15.77-4.02 15.64-4.02L15.64-4.02Q15.33-4.02 14.96-3.82Q14.59-3.62 14.11-3.00L14.11-3.00L12.75-1.17L15.49 3.22L16.76 3.41L16.76 5.01L11.79 5.01L11.79 3.41L12.30 3.33L12.29 3.31L10.78 0.56L9.54 0.56L9.54 3.16L10.61 3.41L10.61 5.01Z"/><path fill="#000000" opacity="1" d="M21.94 5.17L21.94 5.17Q20.76 5.17 19.77 4.74Q18.79 4.31 18.06 3.53Q17.34 2.75 16.95 1.70Q16.55 0.66 16.55-0.57L16.55-0.57L16.55-0.75Q16.55-1.98 16.95-3.02Q17.34-4.06 18.06-4.84Q18.78-5.62 19.76-6.06Q20.74-6.49 21.92-6.49L21.92-6.49Q23.07-6.49 24.06-6.06Q25.05-5.62 25.79-4.84Q26.54-4.06 26.95-3.02Q27.36-1.98 27.36-0.75L27.36-0.75L27.36-0.57Q27.36 0.66 26.95 1.70Q26.54 2.75 25.80 3.53Q25.06 4.31 24.07 4.74Q23.08 5.17 21.94 5.17ZM21.94 3.10L21.94 3.10Q22.79 3.10 23.40 2.64Q24.01 2.18 24.33 1.36Q24.65 0.53 24.65-0.57L24.65-0.57L24.65-0.77Q24.65-1.85 24.32-2.67Q24.00-3.49 23.39-3.95Q22.78-4.41 21.92-4.41L21.92-4.41Q21.01-4.41 20.43-3.96Q19.85-3.51 19.57-2.69Q19.29-1.87 19.29-0.77L19.29-0.77L19.29-0.57Q19.29 0.53 19.57 1.36Q19.86 2.19 20.44 2.65Q21.03 3.10 21.94 3.10Z"/><path fill="#000000" opacity="1" d="M32.70 5.01L27.61 5.01L27.61 3.41L28.78 3.16L28.78-4.48L27.61-4.72L27.61-6.33L28.78-6.33L32.96-6.33L35.70 1.14L35.75 1.14L38.41-6.33L43.70-6.33L43.70-4.72L42.53-4.48L42.53 3.16L43.70 3.41L43.70 5.01L38.63 5.01L38.63 3.41L39.85 3.16L39.85 1.69L39.91-3.65L39.86-3.66L36.65 5.01L34.51 5.01L31.25-3.56L31.20-3.55L31.38 1.31L31.38 3.16L32.70 3.41L32.70 5.01Z"/><path fill="#000000" opacity="1" d="M49.39 5.01L44.31 5.01L44.31 3.41L45.48 3.16L45.48-4.48L44.31-4.72L44.31-6.33L56.19-6.33L56.19-4.72L55.02-4.48L55.02 3.16L56.19 3.41L56.19 5.01L51.12 5.01L51.12 3.41L52.29 3.16L52.29-4.24L48.21-4.24L48.21 3.16L49.39 3.41L49.39 5.01Z"/><path fill="#000000" opacity="1" d="M60.88 5.01L56.64 5.01L56.64 3.41L57.43 3.30L60.81-6.33L63.77-6.33L67.16 3.30L67.95 3.41L67.95 5.01L63.72 5.01L63.72 3.41L64.46 3.27L64.12 2.04L60.47 2.04L60.14 3.27L60.88 3.41L60.88 5.01ZM62.12-3.27L61.05 0.13L63.53 0.13L62.43-3.31L62.30-3.70L62.25-3.70L62.12-3.27Z"/><path fill="#000000" opacity="1" d="M73.53 5.01L68.45 5.01L68.45 3.41L69.62 3.16L69.62-4.48L68.45-4.72L68.45-6.33L73.53-6.33L73.53-4.72L72.36-4.48L72.36-1.61L76.48-1.61L76.48-4.48L75.31-4.72L75.31-6.33L76.48-6.33L79.21-6.33L80.38-6.33L80.38-4.72L79.21-4.48L79.21 3.16L80.38 3.41L80.38 5.01L75.31 5.01L75.31 3.41L76.48 3.16L76.48 0.49L72.36 0.49L72.36 3.16L73.53 3.41L73.53 5.01Z"/><path fill="#000000" opacity="1" d="M86.09 5.01L81.01 5.01L81.01 3.41L82.18 3.16L82.18-4.48L81.01-4.72L81.01-6.33L86.09-6.33L86.09-4.72L84.91-4.48L84.91 3.16L86.09 3.41L86.09 5.01Z"/><path fill="#000000" opacity="1" d="M95.85 3.16L97.02 3.41L97.02 5.01L91.94 5.01L91.94 3.41L93.13 3.18L93.13 0.86L92.13 0.86L91.47 2.90Q91.02 3.94 90.33 4.51Q89.64 5.09 88.64 5.09L88.64 5.09Q88.20 5.09 87.79 4.98Q87.37 4.86 87.06 4.67L87.06 4.67L87.40 2.57Q87.71 2.67 87.98 2.67L87.98 2.67Q88.32 2.67 88.62 2.47Q88.93 2.28 89.29 1.65L89.29 1.65L89.71 0.36L89.73 0.33Q88.58-0.15 88.02-0.89Q87.47-1.62 87.47-2.80L87.47-2.80Q87.47-4.52 88.60-5.43Q89.73-6.33 91.74-6.33L91.74-6.33L97.02-6.33L97.02-4.72L95.85-4.48L95.85 3.16ZM93.13-4.24L91.74-4.24Q90.97-4.24 90.58-3.84Q90.20-3.44 90.20-2.65L90.20-2.65Q90.20-1.87 90.58-1.47Q90.97-1.07 91.74-1.07L91.74-1.07L93.13-1.07L93.13-4.24Z"/></g><g transform="matrix(1 0 0 1 250.25 350.3489109414759)" style=""  ><path fill="#000000" opacity="1" d="M-46.77-5.24L-58.88-5.24L-58.88-9.04L-56.10-9.64L-56.10-27.84L-58.88-28.43L-58.88-32.25L-56.10-32.25L-49.48-32.25L-38.64-14.96L-38.53-14.96L-38.53-27.84L-42.07-28.43L-42.07-32.25L-32.76-32.25L-29.96-32.25L-29.96-28.43L-32.76-27.84L-32.76-5.24L-39.18-5.24L-50.22-22.16L-50.33-22.16L-50.33-9.64L-46.77-9.04L-46.77-5.24Z"/><path fill="#000000" opacity="1" d="M-8.12-5.24L-28.97-5.24L-28.97-9.04L-26.17-9.64L-26.17-27.84L-28.97-28.43L-28.97-32.25L-26.17-32.25L-19.66-32.25L-16.24-32.25L-16.24-28.43L-19.66-27.84L-19.66-10.23L-13.24-10.23L-13.09-14.00L-8.12-14.00L-8.12-5.24Z"/><path fill="#000000" opacity="1" d="M2.76-5.24L-7.36-5.24L-7.36-9.04L-5.46-9.32L2.59-32.25L9.64-32.25L17.71-9.32L19.60-9.04L19.60-5.24L9.51-5.24L9.51-9.04L11.27-9.38L10.46-12.31L1.77-12.31L0.99-9.38L2.76-9.04L2.76-5.24ZM5.71-24.96L3.15-16.87L9.06-16.87L6.43-25.06L6.13-26.00L6.02-26.00L5.71-24.96Z"/><path fill="#000000" opacity="1" d="M33.41-5.24L27.41-5.24L21.18-28.15L18.12-28.43L18.12-32.25L30.31-32.25L30.31-28.43L27.30-28.01L30.25-15.93L30.68-14.18L30.79-14.18L31.24-15.94L36.52-32.25L41.02-32.25L46.58-15.18L46.97-14.02L47.08-14.02L47.40-15.18L50.55-28.01L47.45-28.43L47.45-32.25L59.40-32.25L59.40-28.43L56.53-28.15L50.01-5.24L44.21-5.24L39.55-19.21L38.97-21.14L38.86-21.14L38.14-19.10L33.41-5.24Z"/><path fill="#000000" opacity="1" d="M-85.47 29.50L-85.47 29.50Q-89.33 29.50-92.36 27.94Q-95.38 26.39-97.11 23.43Q-98.83 20.47-98.83 16.24L-98.83 16.24L-98.83 14.99Q-98.83 11.10-97.25 8.10Q-95.66 5.10-92.72 3.41Q-89.78 1.71-85.73 1.71L-85.73 1.71Q-82.91 1.71-80.36 2.46Q-77.81 3.21-75.62 5.03L-75.62 5.03L-75.62 11.99L-80.35 11.99L-81.00 8.00Q-81.63 7.57-82.33 7.26Q-83.02 6.94-83.81 6.77Q-84.60 6.61-85.51 6.61L-85.51 6.61Q-87.57 6.61-89.11 7.59Q-90.65 8.57-91.49 10.44Q-92.34 12.30-92.34 14.96L-92.34 14.96L-92.34 16.24Q-92.34 18.72-91.47 20.61Q-90.59 22.49-89.03 23.55Q-87.46 24.60-85.40 24.60L-85.40 24.60Q-84.30 24.60-83.17 24.37Q-82.04 24.14-80.98 23.75L-80.98 23.75L-80.33 19.93L-75.58 19.93L-75.58 26.74Q-77.20 27.85-79.70 28.68Q-82.21 29.50-85.47 29.50Z"/><path fill="#000000" opacity="1" d="M-60.65 29.50L-60.65 29.50Q-63.45 29.50-65.79 28.47Q-68.14 27.44-69.87 25.59Q-71.59 23.73-72.53 21.24Q-73.47 18.74-73.47 15.81L-73.47 15.81L-73.47 15.38Q-73.47 12.47-72.53 9.98Q-71.59 7.50-69.88 5.64Q-68.16 3.79-65.82 2.75Q-63.48 1.71-60.68 1.71L-60.68 1.71Q-57.94 1.71-55.58 2.75Q-53.22 3.79-51.45 5.64Q-49.68 7.50-48.70 9.98Q-47.71 12.47-47.71 15.38L-47.71 15.38L-47.71 15.81Q-47.71 18.74-48.70 21.24Q-49.68 23.73-51.44 25.59Q-53.21 27.44-55.56 28.47Q-57.92 29.50-60.65 29.50ZM-60.65 24.57L-60.65 24.57Q-58.60 24.57-57.16 23.47Q-55.71 22.38-54.95 20.41Q-54.19 18.44-54.19 15.81L-54.19 15.81L-54.19 15.35Q-54.19 12.77-54.96 10.81Q-55.73 8.85-57.18 7.76Q-58.62 6.66-60.68 6.66L-60.68 6.66Q-62.85 6.66-64.24 7.74Q-65.62 8.81-66.29 10.76Q-66.95 12.71-66.95 15.35L-66.95 15.35L-66.95 15.81Q-66.95 18.44-66.28 20.42Q-65.60 22.40-64.20 23.48Q-62.80 24.57-60.65 24.57Z"/><path fill="#000000" opacity="1" d="M-33.98 29.11L-46.10 29.11L-46.10 25.31L-43.32 24.72L-43.32 6.51L-46.10 5.92L-46.10 2.10L-43.32 2.10L-33.35 2.10L-26.82 19.89L-26.71 19.89L-20.36 2.10L-7.77 2.10L-7.77 5.92L-10.57 6.51L-10.57 24.72L-7.77 25.31L-7.77 29.11L-19.86 29.11L-19.86 25.31L-16.95 24.72L-16.95 21.19L-16.80 8.48L-16.91 8.46L-24.56 29.11L-29.68 29.11L-37.43 8.70L-37.56 8.72L-37.12 20.30L-37.12 24.72L-33.98 25.31L-33.98 29.11Z"/><path fill="#000000" opacity="1" d="M5.46 29.11L-6.65 29.11L-6.65 25.31L-3.85 24.72L-3.85 6.51L-6.65 5.92L-6.65 2.10L-3.85 2.10L6.48 2.10Q9.71 2.10 12.09 3.23Q14.46 4.36 15.75 6.37Q17.04 8.39 17.04 11.06L17.04 11.06Q17.04 13.73 15.75 15.74Q14.46 17.74 12.09 18.85Q9.71 19.97 6.48 19.97L6.48 19.97L2.66 19.97L2.66 24.72L5.46 25.31L5.46 29.11ZM2.66 7.07L2.66 14.97L6.48 14.97Q8.47 14.97 9.50 13.89Q10.53 12.80 10.53 11.10L10.53 11.10Q10.53 9.33 9.50 8.20Q8.47 7.07 6.48 7.07L6.48 7.07L2.66 7.07Z"/><path fill="#000000" opacity="1" d="M23.48 29.11L13.37 29.11L13.37 25.31L15.26 25.03L23.31 2.10L30.36 2.10L38.44 25.03L40.33 25.31L40.33 29.11L30.23 29.11L30.23 25.31L32.00 24.98L31.18 22.04L22.50 22.04L21.72 24.98L23.48 25.31L23.48 29.11ZM26.43 9.39L23.87 17.48L29.79 17.48L27.15 9.30L26.86 8.35L26.75 8.35L26.43 9.39Z"/><path fill="#000000" opacity="1" d="M53.60 29.11L41.48 29.11L41.48 25.31L44.26 24.72L44.26 6.51L41.48 5.92L41.48 2.10L44.26 2.10L50.89 2.10L61.72 19.39L61.83 19.39L61.83 6.51L58.29 5.92L58.29 2.10L67.60 2.10L70.41 2.10L70.41 5.92L67.60 6.51L67.60 29.11L61.18 29.11L50.14 12.19L50.03 12.19L50.03 24.72L53.60 25.31L53.60 29.11Z"/><path fill="#000000" opacity="1" d="M91.26 29.11L79.15 29.11L79.15 25.31L81.95 24.72L81.95 20.21L74.12 6.31L71.30 5.92L71.30 2.10L82.99 2.10L82.99 5.92L81.32 6.22L85.03 13.62L85.45 14.57L85.62 14.57L86.07 13.68L90.41 6.22L87.59 5.92L87.59 2.10L99.05 2.10L99.05 5.92L96.20 6.31L88.44 19.69L88.44 24.72L91.26 25.31L91.26 29.11Z"/></g><g transform="matrix(0.5452663570983877 0.5452663570983876 -0.5452663570983876 0.5452663570983877 249.9999999999996 250.00000000000028)"  >
<g style=""   >
		<g transform="matrix(1 0 0 1 -21.750449826989623 41.180000000000014)"  >
<path style="stroke: none; stroke-width: 1; stroke-dasharray: none; stroke-linecap: butt; stroke-dashoffset: 0; stroke-linejoin: miter; stroke-miterlimit: 4; fill: rgb(255,221,89); fill-rule: nonzero; opacity: 1;"  transform=" translate(-27.749550173010377, -90.68)" d="M 28.83 81.36 c -0.15 0.55 -0.3 1.1 -0.44 1.64 v 0 c -2.45 9.28 -3.65 15.57 -3.67 15.67 c -0.12 0.61 0.29 1.2 0.89 1.31 c 0.07 0.01 0.14 0.02 0.21 0.02 c 0.53 0 1 -0.38 1.1 -0.91 c 0.02 -0.09 1.16 -6.11 3.51 -15.05 h 0 c 0.12 -0.46 0.24 -0.92 0.37 -1.39 c -0.31 0.07 -0.63 0.13 -0.94 0.18 C 29.56 82.43 29.2 81.94 28.83 81.36 z" stroke-linecap="round" />
</g>
		<g transform="matrix(1 0 0 1 0.5032014631065493 -8.171215592765307)"  >
<path style="stroke: none; stroke-width: 1; stroke-dasharray: none; stroke-linecap: butt; stroke-dashoffset: 0; stroke-linejoin: miter; stroke-miterlimit: 4; fill: rgb(255,221,89); fill-rule: nonzero; opacity: 1;"  transform=" translate(-50.00320146310655, -41.32878440723469)" d="M 54.79 42.92 c 12.9 -6.34 18.8 -26.42 21.18 -37.82 c 0.34 -1.63 -0.25 -3.21 -1.58 -4.22 c -1.31 -1 -3.05 -1.15 -4.51 -0.4 C 51.44 9.93 47.95 22.68 47.92 22.81 c -0.08 0.31 -0.38 0.52 -0.7 0.47 s -0.56 -0.31 -0.56 -0.63 v -4.93 C 30.85 34.76 32.84 47.8 32.98 48.63 C 33 48.68 33 48.74 33 48.78 c 0 0.36 -0.29 0.64 -0.64 0.64 c -0.26 0 -0.49 -0.16 -0.59 -0.38 C 30.7 47.09 30.21 42.74 30 40 c -10.61 21.93 -4.8 35.77 -1.17 41.36 c 1.27 -4.7 2.84 -10.08 4.72 -15.74 c 5.5 -16.58 14.86 -39.14 28.2 -52.48 c 0.44 -0.44 1.15 -0.44 1.59 0 c 0.44 0.44 0.44 1.15 0 1.59 C 50.31 27.75 41.12 49.96 35.69 66.3 c -1.97 5.92 -3.59 11.51 -4.88 16.35 c 15.52 -3.51 27.98 -31.56 31.42 -40.06 c -2.83 1.52 -6.93 1.55 -7.16 1.55 c -0.3 0 -0.56 -0.21 -0.63 -0.5 C 54.38 43.35 54.52 43.05 54.79 42.92 z" stroke-linecap="round" />
</g>
</g>
</g>
</svg>