<?xml version="1.0" standalone="no"?>
<!DOCTYPE svg PUBLIC "-//W3C//DTD SVG 20010904//EN"
 "http://www.w3.org/TR/2001/REC-SVG-20010904/DTD/svg10.dtd">
<svg version="1.0" xmlns="http://www.w3.org/2000/svg"
 width="655.000000pt" height="655.000000pt" viewBox="0 0 655.000000 655.000000"
 preserveAspectRatio="xMidYMid meet">
<metadata>
Created by potrace 1.14, written by Peter Selinger 2001-2017
</metadata>
<g transform="translate(0.000000,655.000000) scale(0.100000,-0.100000)"
fill="#000000" stroke="none">
<path d="M2353 5998 c-12 -6 -37 -42 -56 -82 -170 -354 -474 -636 -817 -761
-94 -34 -252 -65 -330 -65 -71 0 -104 -11 -124 -42 -24 -38 -78 -673 -96
-1133 -43 -1092 153 -1903 607 -2512 102 -137 233 -281 355 -391 153 -136 140
-131 220 -85 37 21 66 41 65 44 -1 3 -44 41 -95 83 -191 159 -365 353 -507
566 -85 128 -214 383 -269 532 -230 626 -279 1377 -166 2562 11 115 22 211 23
212 1 2 51 10 110 19 292 43 525 155 769 368 124 108 292 327 369 478 l29 59
948 0 947 0 49 -94 c136 -265 416 -540 685 -676 141 -70 379 -140 483 -140 18
0 39 -4 47 -9 14 -9 34 -183 68 -611 22 -283 25 -1026 5 -1220 -52 -496 -150
-864 -322 -1211 -308 -622 -830 -1072 -1596 -1378 -139 -55 -344 -124 -368
-123 -24 0 -237 72 -376 127 -223 87 -544 256 -706 371 l-61 43 -71 -41 c-55
-32 -69 -44 -61 -54 17 -21 226 -157 343 -224 139 -80 318 -164 499 -236 182
-72 399 -144 436 -144 33 0 264 77 442 148 664 266 1165 653 1494 1157 388
593 555 1359 516 2369 -19 479 -72 1104 -97 1144 -20 30 -53 42 -122 42 -166
0 -410 77 -577 182 -243 153 -459 399 -575 655 -20 45 -36 66 -55 73 -37 14
-2032 12 -2062 -2z"/>
<path d="M2627 5549 c-9 -5 -39 -43 -66 -83 -247 -365 -594 -628 -999 -756
-56 -18 -108 -41 -117 -50 -13 -15 -21 -72 -37 -262 -26 -299 -32 -1069 -10
-1278 92 -889 391 -1477 979 -1921 50 -38 94 -69 97 -69 3 0 26 43 50 95 134
287 388 510 753 661 106 44 163 65 163 59 0 -2 -25 -33 -56 -67 -55 -61 -114
-144 -114 -160 0 -20 34 -5 73 33 165 159 485 278 800 296 l111 6 -58 -55
c-73 -67 -69 -86 12 -53 188 76 458 84 724 19 55 -13 104 -22 109 -18 15 9 72
128 122 254 120 301 185 615 218 1040 27 358 -12 1371 -55 1419 -9 10 -56 31
-104 46 -401 124 -765 395 -1001 747 -28 43 -61 84 -73 93 -20 13 -112 15
-763 15 -485 -1 -746 -4 -758 -11z m871 -1165 c82 -33 146 -108 168 -194 l11
-45 82 -7 c93 -8 166 -27 266 -70 130 -56 162 -63 290 -62 106 0 129 3 195 28
112 41 134 43 164 12 29 -29 34 -70 11 -103 -15 -21 -111 -63 -193 -83 -26 -7
-42 -16 -40 -23 2 -7 44 -157 93 -333 l89 -322 45 -5 c55 -6 91 -42 91 -90 0
-56 -28 -163 -57 -224 -37 -77 -131 -172 -207 -207 -78 -37 -179 -45 -261 -21
-159 45 -272 177 -310 361 -26 126 -7 172 78 181 l44 5 91 326 c50 180 89 328
87 330 -2 2 -35 10 -74 17 -38 8 -98 26 -133 40 -131 55 -203 77 -275 82 -71
6 -73 5 -73 -17 0 -97 -93 -190 -192 -190 -17 0 -18 -31 -18 -515 l0 -515 158
0 c164 -1 177 -4 200 -47 18 -34 14 -52 -17 -84 l-29 -29 -420 0 c-409 0 -420
1 -446 21 -37 29 -37 89 0 118 25 20 40 21 210 21 l184 0 0 514 0 514 -50 7
c-88 12 -153 75 -166 161 l-6 44 -52 -1 c-64 0 -155 -25 -268 -73 -48 -20
-120 -43 -158 -50 -39 -8 -73 -16 -75 -17 -1 -2 38 -151 88 -330 l91 -327 45
-5 c55 -6 91 -42 91 -90 0 -56 -28 -163 -57 -224 -37 -77 -131 -172 -206 -207
-250 -118 -539 70 -576 374 -5 39 -4 76 2 94 10 30 57 56 102 56 14 0 25 2 25
5 0 2 41 149 90 327 50 177 88 328 86 335 -3 7 -14 13 -24 13 -22 0 -115 31
-165 55 -59 28 -74 89 -31 131 30 31 51 29 164 -11 146 -53 303 -44 465 25
128 54 188 70 286 77 l87 6 5 33 c17 104 115 202 227 225 44 9 125 1 168 -17z
m557 -2059 c16 -15 25 -36 25 -55 0 -19 -9 -40 -25 -55 l-24 -25 -671 0 -671
0 -24 25 c-37 37 -28 101 19 123 14 7 249 11 684 11 l663 1 24 -25z"/>
<path d="M3346 4240 c-41 -13 -74 -48 -86 -89 -14 -51 -13 -194 2 -209 13 -13
212 -17 242 -6 24 9 23 186 -2 233 -30 60 -95 89 -156 71z"/>
<path d="M2381 3458 c-23 -84 -51 -181 -61 -215 l-18 -63 123 0 124 0 -20 73
c-61 221 -98 350 -102 353 -2 3 -23 -64 -46 -148z"/>
<path d="M4301 3458 c-23 -84 -51 -181 -61 -215 l-18 -63 124 0 c94 0 122 3
119 13 -3 6 -29 102 -60 211 -30 110 -56 201 -58 203 -2 2 -23 -65 -46 -149z"/>
<path d="M2178 3014 c-18 -17 28 -108 79 -155 97 -92 199 -101 309 -26 47 32
95 102 109 160 l7 27 -249 0 c-137 0 -252 -3 -255 -6z"/>
<path d="M4098 3014 c-18 -17 28 -108 79 -155 57 -55 99 -73 168 -73 115 0
220 87 249 207 l6 27 -248 0 c-137 0 -251 -3 -254 -6z"/>
<path d="M4380 1819 c-285 -32 -686 -145 -1075 -301 -307 -124 -815 -368 -815
-392 0 -6 9 -17 20 -23 17 -11 45 0 218 86 714 357 1325 555 1785 578 130 6
156 15 143 48 -4 12 -24 15 -103 14 -54 -1 -132 -5 -173 -10z"/>
<path d="M4615 1470 c-234 -95 -422 -136 -590 -127 -55 3 -122 12 -150 21 -76
24 -82 5 -16 -54 29 -27 66 -54 82 -60 37 -16 37 -24 -3 -38 -18 -6 -100 -34
-183 -62 -370 -126 -721 -189 -955 -170 -47 4 -87 6 -89 4 -7 -6 294 -148 404
-192 186 -73 256 -94 290 -89 53 9 320 115 474 188 266 127 482 268 688 450
77 68 186 181 171 178 -1 0 -57 -22 -123 -49z"/>
</g>
</svg>
